<?xml version="1.0" standalone="no"?>
<!DOCTYPE svg PUBLIC "-//W3C//DTD SVG 20010904//EN"
 "http://www.w3.org/TR/2001/REC-SVG-20010904/DTD/svg10.dtd">
<svg version="1.0" xmlns="http://www.w3.org/2000/svg"
 width="499.000000pt" height="499.000000pt" viewBox="0 0 499.000000 499.000000"
 preserveAspectRatio="xMidYMid meet">

<g transform="translate(0.000000,499.000000) scale(0.100000,-0.100000)"
fill="#000000" stroke="none">
<path d="M120 2555 l0 -75 365 0 365 0 0 75 0 75 -365 0 -365 0 0 -75z"/>
<path d="M3795 2588 c-21 -24 -84 -92 -140 -153 -56 -60 -121 -131 -144 -157
-24 -27 -47 -48 -52 -48 -5 0 -10 87 -11 194 l-3 194 -85 -47 -85 -47 -3 -407
-2 -407 90 0 90 0 0 138 0 137 148 152 c81 84 201 208 267 276 66 67 140 144
165 170 l44 47 -121 0 -121 0 -37 -42z"/>
<path d="M1088 2572 l-88 -47 0 -407 0 -408 90 0 90 0 0 455 c0 250 -1 455 -2
455 -2 0 -42 -22 -90 -48z"/>
<path d="M1638 2572 l-88 -47 0 -127 0 -128 -95 0 -94 0 -82 -72 -82 -73 177
-3 176 -2 0 -205 0 -205 90 0 90 0 0 455 c0 250 -1 455 -2 454 -2 0 -42 -21
-90 -47z"/>
<path d="M2398 2567 l-78 -42 0 -407 0 -408 85 0 85 0 0 450 c0 248 -3 450 -7
449 -5 0 -43 -19 -85 -42z"/>
<path d="M2963 2567 l-83 -42 -2 -253 -3 -254 -184 286 c-101 157 -185 286
-188 286 -4 0 -4 -3 27 -222 l19 -136 92 -149 c51 -81 106 -173 124 -203 17
-30 48 -81 69 -112 l37 -58 89 0 90 0 0 450 c0 248 -1 450 -2 450 -2 0 -40
-19 -85 -43z"/>
<path d="M478 2422 l-88 -47 0 -332 0 -333 90 0 90 0 0 380 c0 209 -1 380 -2
380 -2 -1 -42 -22 -90 -48z"/>
<path d="M3716 2166 c-43 -138 -44 -130 19 -236 31 -52 73 -123 93 -157 l37
-63 114 0 c89 0 112 3 108 13 -6 15 -324 508 -336 520 -5 5 -20 -30 -35 -77z"/>
</g>
</svg>
